<svg height="512" viewBox="0 0 32 32" width="512" xmlns="http://www.w3.org/2000/svg"><g id="Layer_2" data-name="Layer 2"><path d="m28 10.18v7.82a5 5 0 0 1 -5 5h-13v1a3.009 3.009 0 0 0 3 3h11.53a1.03 1.03 0 0 1 .45.11l3.57 1.78a1.03 1.03 0 0 0 .45.11 1.014 1.014 0 0 0 .53-.15 1 1 0 0 0 .47-.85v-15a3 3 0 0 0 -2-2.82z"/><path d="m26 18v-12a3 3 0 0 0 -3-3h-18a3 3 0 0 0 -3 3v18a1 1 0 0 0 1.625.781l4.452-3.562a1 1 0 0 1 .623-.219h14.3a3 3 0 0 0 3-3zm-11.08-1.62a.9.9 0 0 1 -.54.54.943.943 0 0 1 -.76 0 .9.9 0 0 1 -.54-.54 1 1 0 0 1 -.08-.38 1.052 1.052 0 0 1 .29-.71 1.155 1.155 0 0 1 .33-.21.916.916 0 0 1 .76 0 1.155 1.155 0 0 1 .33.21 1.033 1.033 0 0 1 .29.71 1 1 0 0 1 -.08.38zm.191-3.5a.349.349 0 0 0 -.169.318 1 1 0 0 1 -2 0 2.321 2.321 0 0 1 1.4-2.165 1.059 1.059 0 0 0 -.205-2.018 1.072 1.072 0 0 0 -1.2.689 1 1 0 0 1 -1.884-.671 3.059 3.059 0 1 1 4.053 3.847z"/></g></svg>